<svg id="e43e1b35-c12c-4627-b19a-08a341acb202" data-name="Camada 1" xmlns="http://www.w3.org/2000/svg" viewBox="0 0 10.5 13.6"><defs><style>.a8d630ac-f50b-4633-844a-888f731c3c01{fill:none;stroke:#e4bc5c;stroke-linecap:round;stroke-linejoin:round;stroke-width:0.75px;}.ef925cd4-40a7-4b4c-8a0f-d43ef4b2cd6f{fill:#e4bc5c;}</style></defs><circle class="a8d630ac-f50b-4633-844a-888f731c3c01" cx="2.7" cy="10.9" r="2.3"/><circle class="a8d630ac-f50b-4633-844a-888f731c3c01" cx="7.8" cy="10.9" r="2.3"/><path class="ef925cd4-40a7-4b4c-8a0f-d43ef4b2cd6f" d="M11,6.5H5.3a.3.3,0,0,0-.3.3V8.2h6.3V6.8Z" transform="translate(-2.9 -0.8)"/><path class="ef925cd4-40a7-4b4c-8a0f-d43ef4b2cd6f" d="M11.5,3.5a2.4,2.4,0,0,1-.9.7h-.2c0-.1.3-.2.5-.6a.3.3,0,0,1,.1-.2V3.1A2.5,2.5,0,0,0,8.4.8,2.5,2.5,0,0,0,5.7,3.1h0l.2.2.7.5-.7-.2-.4-.2a.1.1,0,0,1-.1-.1A1.4,1.4,0,0,0,4,4.8,1.3,1.3,0,0,0,5.3,6.2h5.9a1.3,1.3,0,0,0,1.2-1.4A1.4,1.4,0,0,0,11.5,3.5Z" transform="translate(-2.9 -0.8)"/></svg>